<svg xmlns="http://www.w3.org/2000/svg" xmlns:xlink="http://www.w3.org/1999/xlink" width="2000" height="624.46"><rect width="2000" height="624.46" rx="5" ry="5" class="a"/><svg y="0%" x="0%"><circle cx="20" cy="20" r="6" fill="#ff5f58"/><circle cx="40" cy="20" r="6" fill="#ffbd2e"/><circle cx="60" cy="20" r="6" fill="#18c132"/></svg><svg height="564.46" viewBox="0 0 196 56.446" width="1960" x="15" xmlns="http://www.w3.org/2000/svg" xmlns:xlink="http://www.w3.org/1999/xlink" y="50"><style>@keyframes k{0%{transform:translateX(-196px)}6.7%{transform:translateX(-392px)}11.3%{transform:translateX(-588px)}11.5%{transform:translateX(-784px)}11.6%{transform:translateX(-980px)}13%{transform:translateX(-1176px)}13.7%{transform:translateX(-1568px)}35.5%{transform:translateX(-1764px)}71.6%{transform:translateX(-1960px)}98.8%{transform:translateX(-2156px)}98.9%{transform:translateX(-2352px)}to{transform:translateX(-2548px)}}.a{fill:#282d35}.f,.g,.h{fill:#b9c0cb;white-space:pre}.g,.h{fill:#a8cc8c}.h{fill:#b9c0cb;font-weight:700}</style><g font-family="Monaco,Consolas,Menlo,'Bitstream Vera Sans Mono','Powerline Symbols',monospace" font-size="1.67"><defs><symbol id="1"><text y="1.67" class="f">$</text></symbol><symbol id="2"><text y="1.67" class="f">$</text><text x="2.004" y="1.67" class="f">RUST_LOG=info</text><text x="16.032" y="1.67" class="f">./target/debug/examples/ibmtest</text><text x="48.096" y="1.67" class="f">--web.listen-port</text><text x="66.132" y="1.67" class="f">5050</text><text x="71.142" y="1.67" class="f">--ibm</text><text x="77.154" y="1.67" class="f">XAbeP_94ggkbn6_08drlnpBxeKz2OTackLAu3D1y8Ub5</text><text x="122.244" y="1.67" class="f">--ibm-test</text><text x="133.266" y="1.67" class="f">U9vQiu-br8M3nicU9p59KH6XkuUsQKT0d9x50V4lFI97</text></symbol><symbol id="3"><text y="1.67" class="f">Dec</text><text x="4.008" y="1.67" class="f">03</text><text x="7.014" y="1.67" class="f">01:58:08.653</text><text x="21.042" y="1.67" class="g">INFO</text><text x="26.052" y="1.67" class="f">ibmtest:</text><text x="35.07" y="1.67" class="f">refreshing</text><text x="46.092" y="1.67" class="f">access</text><text x="53.106" y="1.67" class="f">tokens</text><text x="60.12" y="1.67" class="f">every</text><text x="66.132" y="1.67" class="f">1800</text><text x="71.142" y="1.67" class="f">seconds</text></symbol><symbol id="4"><text y="1.67" class="f">Dec</text><text x="4.008" y="1.67" class="f">03</text><text x="7.014" y="1.67" class="f">01:58:08.667</text><text x="21.042" y="1.67" class="g">INFO</text><text x="26.052" y="1.67" class="h">Server::run{</text><text x="38.076" y="1.67" class="f">addr=127.0.0.1:5050</text><text x="57.114" y="1.67" class="h">}</text><text x="58.116" y="1.67" class="f">:</text><text x="60.12" y="1.67" class="f">warp::server:</text><text x="74.148" y="1.67" class="f">listening</text><text x="84.168" y="1.67" class="f">on</text><text x="87.174" y="1.67" class="f">http://127.0.0.1:5050</text></symbol><symbol id="5"><text y="1.67" class="f">Dec</text><text x="4.008" y="1.67" class="f">03</text><text x="7.014" y="1.67" class="f">01:58:08.881</text><text x="21.042" y="1.67" class="g">INFO</text><text x="26.052" y="1.67" class="f">iam_token_manager::ibm:</text><text x="50.1" y="1.67" class="f">retrieved</text><text x="60.12" y="1.67" class="f">new</text><text x="64.128" y="1.67" class="f">access</text><text x="71.142" y="1.67" class="f">token</text><text x="77.154" y="1.67" class="f">for</text><text x="81.162" y="1.67" class="f">8e75d07057d4c06f024101fea0db0eb2</text></symbol><symbol id="6"><text y="1.67" class="f">Dec</text><text x="4.008" y="1.67" class="f">03</text><text x="7.014" y="1.67" class="f">01:58:08.999</text><text x="21.042" y="1.67" class="g">INFO</text><text x="26.052" y="1.67" class="f">iam_token_manager::ibm:</text><text x="50.1" y="1.67" class="f">retrieved</text><text x="60.12" y="1.67" class="f">new</text><text x="64.128" y="1.67" class="f">access</text><text x="71.142" y="1.67" class="f">token</text><text x="77.154" y="1.67" class="f">for</text><text x="81.162" y="1.67" class="f">e768732951dd64a20d79ad9bba4c40da</text></symbol><symbol id="7"><text y="1.67" class="f">Dec</text><text x="4.008" y="1.67" class="f">03</text><text x="7.014" y="1.67" class="f">01:58:12.383</text><text x="21.042" y="1.67" class="g">INFO</text><text x="26.052" y="1.67" class="f">iam_token_manager::token_manager:</text><text x="60.12" y="1.67" class="f">GET</text><text x="64.128" y="1.67" class="f">tokens</text><text x="71.142" y="1.67" class="f">completed</text></symbol><symbol id="8"><text y="1.67" class="f">Dec</text><text x="4.008" y="1.67" class="f">03</text><text x="7.014" y="1.67" class="f">01:58:18.006</text><text x="21.042" y="1.67" class="g">INFO</text><text x="26.052" y="1.67" class="f">iam_token_manager::token_manager:</text><text x="60.12" y="1.67" class="f">GET</text><text x="64.128" y="1.67" class="f">token</text><text x="70.14" y="1.67" class="f">completed</text><text x="80.16" y="1.67" class="f">for</text><text x="84.168" y="1.67" class="f">ID:</text><text x="88.176" y="1.67" class="f">8e75d07057d4c06f024101fea0db0eb2</text></symbol><symbol id="9"><text y="1.67" class="f">^C</text></symbol><symbol id="a"><path fill="transparent" d="M0 0h196v26H0z"/></symbol><symbol id="b"><path fill="#6f7683" d="M0 0h1.102v2.171H0z"/></symbol></defs><path class="a" d="M0 0h196v56.446H0z"/><g style="animation-duration:15.569223s;animation-iteration-count:infinite;animation-name:k;animation-timing-function:steps(1,end)"><svg width="2744"><svg><use xlink:href="#a"/><use xlink:href="#b" x="-.004"/></svg><svg x="196"><use xlink:href="#a"/><use xlink:href="#b" x="1.996"/><use xlink:href="#1"/></svg><svg x="392"><use xlink:href="#a"/><use xlink:href="#b" x="176.996"/><use xlink:href="#2"/></svg><svg x="588"><use xlink:href="#a"/><use xlink:href="#b" x="-.004" y="2.146"/><use xlink:href="#2"/></svg><svg x="784"><use xlink:href="#a"/><use xlink:href="#b" x="-.004" y="4.317"/><use xlink:href="#2"/><use xlink:href="#3" y="2.171"/></svg><svg x="980"><use xlink:href="#a"/><use xlink:href="#b" x="-.004" y="6.488"/><use xlink:href="#2"/><use xlink:href="#3" y="2.171"/><use xlink:href="#4" y="4.342"/></svg><svg x="1176"><use xlink:href="#a"/><use xlink:href="#b" x="-.004" y="8.659"/><use xlink:href="#2"/><use xlink:href="#3" y="2.171"/><use xlink:href="#4" y="4.342"/><use xlink:href="#5" y="6.513"/></svg><svg x="1372"><use xlink:href="#a"/><use xlink:href="#b" x="112.996" y="8.659"/><use xlink:href="#2"/><use xlink:href="#3" y="2.171"/><use xlink:href="#4" y="4.342"/><use xlink:href="#5" y="6.513"/><use xlink:href="#6" y="8.684"/></svg><svg x="1568"><use xlink:href="#a"/><use xlink:href="#b" x="-.004" y="10.83"/><use xlink:href="#2"/><use xlink:href="#3" y="2.171"/><use xlink:href="#4" y="4.342"/><use xlink:href="#5" y="6.513"/><use xlink:href="#6" y="8.684"/></svg><svg x="1764"><use xlink:href="#a"/><use xlink:href="#b" x="-.004" y="13.001"/><use xlink:href="#2"/><use xlink:href="#3" y="2.171"/><use xlink:href="#4" y="4.342"/><use xlink:href="#5" y="6.513"/><use xlink:href="#6" y="8.684"/><use xlink:href="#7" y="10.855"/></svg><svg x="1960"><use xlink:href="#a"/><use xlink:href="#b" x="-.004" y="15.172"/><use xlink:href="#2"/><use xlink:href="#3" y="2.171"/><use xlink:href="#4" y="4.342"/><use xlink:href="#5" y="6.513"/><use xlink:href="#6" y="8.684"/><use xlink:href="#7" y="10.855"/><use xlink:href="#8" y="13.026"/></svg><svg x="2156"><use xlink:href="#a"/><use xlink:href="#b" x="1.996" y="15.172"/><use xlink:href="#2"/><use xlink:href="#3" y="2.171"/><use xlink:href="#4" y="4.342"/><use xlink:href="#5" y="6.513"/><use xlink:href="#6" y="8.684"/><use xlink:href="#7" y="10.855"/><use xlink:href="#8" y="13.026"/><use xlink:href="#9" y="15.197"/></svg><svg x="2352"><use xlink:href="#a"/><use xlink:href="#b" x="1.996" y="17.343"/><use xlink:href="#2"/><use xlink:href="#3" y="2.171"/><use xlink:href="#4" y="4.342"/><use xlink:href="#5" y="6.513"/><use xlink:href="#6" y="8.684"/><use xlink:href="#7" y="10.855"/><use xlink:href="#8" y="13.026"/><use xlink:href="#9" y="15.197"/><use xlink:href="#1" y="17.368"/></svg><svg x="2548"><use xlink:href="#a"/><use xlink:href="#b" x="-.004" y="19.514"/><use xlink:href="#2"/><use xlink:href="#3" y="2.171"/><use xlink:href="#4" y="4.342"/><use xlink:href="#5" y="6.513"/><use xlink:href="#6" y="8.684"/><use xlink:href="#7" y="10.855"/><use xlink:href="#8" y="13.026"/><use xlink:href="#9" y="15.197"/><use xlink:href="#1" y="17.368"/></svg></svg></g></g></svg></svg>